<?xml version="1.0"?>
<svg xmlns="http://www.w3.org/2000/svg" viewBox="0 0 50 50">
    <path style="text-indent:0;text-align:start;line-height:normal;text-transform:none;block-progression:tb;-inkscape-font-specification:Sans; fill:#343434" d="M 7 7 C 5.9069372 7 5 7.9069372 5 9 L 5 19 L 4.8125 19 L 4.625 19.09375 C 4.478 19.15575 1 20.64175 1 24.96875 L 1 28.3125 C 2.594 26.8805 4.694 26 7 26 L 31 26 C 33.826 26 36.349 27.29975 38 29.34375 L 38 22 C 38 20.346 36.654 19 35 19 L 31 19 L 31 15 L 29 15 L 29 19 L 22 19 L 22 9 C 22 7.9069372 21.093063 7 20 7 L 7 7 z M 7 9 L 20 9 L 20 19 L 20 20 L 20 21 L 7 21 L 7 20 L 7 19 L 7 9 z M 40 20 L 40 34 L 37.90625 34 C 37.417993 30.614305 34.518443 28 31 28 L 7 28 C 3.14 28 0 31.141 0 35 C 0 38.859 3.14 42 7 42 L 31 42 C 34.518443 42 37.417993 39.385695 37.90625 36 L 40 36 L 40 41 L 50 41 L 50 39.4375 L 49.75 39.15625 C 49.689 39.08825 43.51025 32.263 42.15625 20.875 L 42.0625 20 L 40 20 z M 7 33 C 8.105 33 9 33.895 9 35 C 9 36.105 8.105 37 7 37 C 5.895 37 5 36.105 5 35 C 5 33.895 5.895 33 7 33 z M 15 33 C 16.105 33 17 33.895 17 35 C 17 36.105 16.105 37 15 37 C 13.895 37 13 36.105 13 35 C 13 33.895 13.895 33 15 33 z M 23 33 C 24.105 33 25 33.895 25 35 C 25 36.105 24.105 37 23 37 C 21.895 37 21 36.105 21 35 C 21 33.895 21.895 33 23 33 z M 31 33 C 32.105 33 33 33.895 33 35 C 33 36.105 32.105 37 31 37 C 29.895 37 29 36.105 29 35 C 29 33.895 29.895 33 31 33 z" overflow="visible" font-family="Sans"/>
</svg>
